Results
version=1
nRows=29
nColumns=24
inDegrees=yes
endheader
time	pelvis_tilt	pelvis_list	pelvis_rotation	pelvis_tx	pelvis_ty	pelvis_tz	hip_flexion_r	hip_adduction_r	hip_rotation_r	knee_angle_r	ankle_angle_r	subtalar_angle_r	mtp_angle_r	hip_flexion_l	hip_adduction_l	hip_rotation_l	knee_angle_l	ankle_angle_l	subtalar_angle_l	mtp_angle_l	lumbar_extension	lumbar_bending	lumbar_rotation
      1.08733333	     -4.25657919	    -11.36722280	     -6.90562599	     -0.07949327	      0.98634373	      0.28671696	    -10.38029580	     12.35047090	     -1.25172189	     -6.15146766	      6.15190182	     -3.99158119	     -3.97596090	     28.99037770	    -14.42418852	    -12.75487330	      0.30367650	      2.33678478	     -0.38203754	     -0.96374802	     -7.81184578	     13.65377804	     10.76207801
      1.09150000	     -4.08947577	    -11.21623538	     -7.13273982	     -0.07368180	      0.98621447	      0.28696691	    -10.80106986	     12.05866828	     -1.00160365	     -6.37789597	      6.16053134	     -3.92909971	     -3.65993785	     28.73313915	    -14.38693233	    -12.74613810	     -0.08689085	      2.27484975	     -0.69335285	     -0.79285807	     -8.01649982	     13.34762527	     11.14417923
      1.09566667	     -4.02725129	    -11.09836788	     -7.39257238	     -0.06794041	      0.98595173	      0.28725913	    -11.08069406	     11.81155634	     -0.70801638	     -6.67070151	      6.20725753	     -3.87607119	     -3.50169281	     28.60755268	    -14.40310425	    -12.71114083	     -0.55419664	      2.09381171	     -1.11193327	     -0.70973006	     -8.10880859	     13.11316029	     11.30935466
      1.09983333	     -3.90901850	    -10.94847286	     -7.64789253	     -0.06214946	      0.98584449	      0.28755730	    -11.40609511	     11.51994944	     -0.42616959	     -6.97275104	      6.19843215	     -3.83641688	     -3.31278454	     28.40199244	    -14.38180004	    -12.69629612	     -1.03778583	      1.89809399	     -1.56776463	     -0.60732338	     -8.25772087	     12.81299338	     11.62611549
      1.10400000	     -3.67135201	    -10.75488169	     -7.90874358	     -0.05628879	      0.98601622	      0.28788270	    -11.85504142	     11.15686784	     -0.12580051	     -7.25995319	      6.12951293	     -3.79556401	     -2.91045953	     28.03925226	    -14.31465476	    -12.79931568	     -1.52976108	      1.73503888	     -1.93800807	     -0.37753355	     -8.54089019	     12.43394206	     12.05898739
      1.10816667	     -3.66030561	    -10.61397767	     -8.17172400	     -0.05049493	      0.98582533	      0.28817346	    -12.02709844	     10.88802840	      0.17999692	     -7.62834671	      6.08670806	     -3.78476476	     -2.80026959	     27.96256449	    -14.30755801	    -12.77266593	     -2.09056638	      1.46480120	     -2.43213089	     -0.32162106	     -8.57307271	     12.17528744	     12.12883671
      1.11233333	     -3.59381302	    -10.44137708	     -8.42250890	     -0.04463714	      0.98579090	      0.28842500	    -12.24272073	     10.57370659	      0.45318432	     -8.00509903	      5.97977686	     -3.78517434	     -2.66756550	     27.80025270	    -14.25272568	    -12.77069673	     -2.62344849	      1.12219099	     -3.00474976	     -0.25510700	     -8.64007169	     11.85451215	     12.39162660
      1.11650000	     -3.23254757	    -10.20609709	     -8.73099650	     -0.03872210	      0.98638619	      0.28886636	    -12.76514823	     10.12970311	      0.79679402	     -8.37008473	      5.85174178	     -3.77826270	     -1.76507170	     27.24449281	    -14.15517523	    -13.11006081	     -3.09810275	      0.74409545	     -3.32747799	      0.24603762	     -9.05190260	     11.38564447	     12.83540830
      1.12066667	     -3.22785784	    -10.05109483	     -8.90437094	     -0.03285928	      0.98629560	      0.28890401	    -12.86724895	      9.85195512	      0.97084136	     -8.81327069	      5.69857680	     -3.80928693	     -1.52328093	     27.17940154	    -14.07204414	    -13.00331018	     -3.65524574	      0.31996084	     -3.96929452	      0.36988382	     -9.03903466	     11.11138208	     13.13227432
      1.12483333	     -3.20915310	     -9.87784655	     -9.10754062	     -0.02690567	      0.98632920	      0.28903521	    -12.98515885	      9.54970917	      1.19985625	     -9.24508300	      5.45581890	     -3.80379589	     -1.39219354	     27.07344235	    -13.99086237	    -13.03730495	     -4.20219429	     -0.12869432	     -4.49358224	      0.42933429	     -9.02741953	     10.81310308	     13.21648656
      1.12900000	     -2.97707785	     -9.67646617	     -9.27293392	     -0.02096559	      0.98676514	      0.28903083	    -13.29172236	      9.17141585	      1.32777748	     -9.71677410	      5.22621448	     -3.73806984	     -0.85378873	     26.70456794	    -13.83486886	    -13.12769721	     -4.67877418	     -0.63383665	     -5.05199963	      0.68828750	     -9.26240441	     10.43844448	     13.66225659
      1.13316667	     -2.98609034	     -9.49265067	     -9.44844648	     -0.01497901	      0.98685323	      0.28910662	    -13.32301995	      8.87208473	      1.50775512	    -10.23929288	      4.92549433	     -3.82754016	     -0.72933939	     26.62321058	    -13.73185324	    -13.19564579	     -5.20280887	     -1.13053188	     -5.50007907	      0.73861276	     -9.20001308	     10.12807403	     13.63201385
      1.13733333	     -2.88609210	     -9.29491373	     -9.58520738	     -0.00904645	      0.98715968	      0.28899598	    -13.42199856	      8.53275693	      1.60864135	    -10.82945979	      4.68517937	     -3.85892884	     -0.37811047	     26.40862858	    -13.56862987	    -13.21492925	     -5.67572396	     -1.63998513	     -6.09716398	      0.88597773	     -9.28611155	      9.79306647	     13.90388510
      1.14150000	     -2.83214228	     -9.09744738	     -9.68759320	     -0.00297193	      0.98743897	      0.28889633	    -13.48170037	      8.21632690	      1.68541087	    -11.39242564	      4.31280357	     -3.91507711	     -0.12591490	     26.25844847	    -13.40779332	    -13.31300932	     -6.17062848	     -2.16924569	     -6.54606820	      0.98317991	     -9.27038271	      9.47263973	     13.96603507
      1.14566667	     -2.49820697	     -8.82365354	     -9.68777890	      0.00322697	      0.98821780	      0.28849493	    -13.80941679	      7.75743707	      1.54932396	    -11.94972769	      3.85028705	     -3.80071012	      1.84124168	     25.75527426	    -13.07265371	    -13.39582392	     -6.53023790	     -2.68477234	     -6.93674276	      1.74354489	     -9.55886412	      9.00942805	     14.22377009
      1.14983333	     -2.63849802	     -8.72644436	     -9.71124732	      0.00916783	      0.98821640	      0.28816207	    -13.59241751	      7.60746196	      1.56594654	    -12.64155201	      3.33321279	     -4.06684978	      7.49583108	     25.87665296	    -12.99366682	    -13.29383555	     -7.07554909	     -3.21391940	     -7.43083862	      3.77664245	     -9.35983826	      8.88280564	     14.03803106
      1.15400000	     -2.63487496	     -8.51875131	     -9.77396528	      0.01529606	      0.98857345	      0.28794160	    -13.49569421	      7.29849212	      1.54889670	    -13.37073947	      2.84662137	     -4.08302611	      7.51407943	     25.76499747	    -12.81130693	    -13.41240516	     -7.53092020	     -3.65398017	     -7.67848304	      3.77496797	     -9.28165211	      8.56070715	     14.07304381
      1.15816667	     -2.56953727	     -8.30195635	     -9.80402992	      0.02138279	      0.98906508	      0.28759064	    -13.41457805	      6.97140201	      1.47577953	    -14.18134336	      2.40098513	     -4.15976692	      7.57621305	     25.57329509	    -12.58553856	    -13.48225783	     -7.93988367	     -4.09259650	     -8.05381522	      3.77841854	     -9.27790721	      8.23143839	     14.15327195
      1.16233333	     -2.52455168	     -8.10547445	     -9.77769949	      0.02753807	      0.98955900	      0.28717919	    -13.30783241	      6.68493873	      1.35954226	    -14.98295148	      1.78373189	     -4.22424043	      7.62659818	     25.42306311	    -12.36907013	    -13.54702434	     -8.37391689	     -4.45289640	     -8.23132371	      3.78112987	     -9.24130340	      7.92814867	     14.14951651
      1.16650000	     -2.46653330	     -7.89126779	     -9.74025237	      0.03371805	      0.99011635	      0.28670470	    -13.16746223	      6.37593003	      1.18994080	    -15.86529818	      1.17733147	     -4.32348209	      7.68728683	     25.23939992	    -12.12240379	    -13.62239226	     -8.77067558	     -4.77985886	     -8.42763990	      3.78381539	     -9.20242041	      7.62158898	     14.12828235
      1.17066667	     -2.23959769	     -7.62039612	     -9.57227891	      0.03993892	      0.99093591	      0.28585633	    -13.16911074	      5.97466712	      0.81476014	    -16.77959984	      0.60475949	     -4.26497694	      8.22693539	     24.86379615	    -11.71272320	    -13.54760837	     -9.07408300	     -5.15655347	     -8.77990623	      3.82230072	     -9.35652670	      7.23644802	     14.04289622
      1.17483333	     -2.21325266	     -7.41789829	     -9.52372027	      0.04609516	      0.99152789	      0.28539212	    -12.92224691	      5.69471581	      0.63783572	    -17.78101137	     -0.09230903	     -4.42580942	      8.29589674	     24.70777838	    -11.48728229	    -13.64698762	     -9.47270174	     -5.34749795	     -8.83155556	      3.82502348	     -9.28720363	      6.94198340	     13.96710959
      1.17900000	     -2.17051841	     -7.18551003	     -9.44520727	      0.05226802	      0.99216983	      0.28484160	    -12.64910257	      5.38076560	      0.40081037	    -18.84709151	     -0.78616738	     -4.57865759	      8.37250934	     24.52284898	    -11.21081208	    -13.73042095	     -9.83557838	     -5.52776896	     -8.87685946	      3.82756325	     -9.23225142	      6.61759734	     13.89525791
      1.18316667	     -2.11926545	     -6.91900216	     -9.35184616	      0.05843573	      0.99285882	      0.28422384	    -12.33569368	      5.02723682	      0.13186960	    -19.98632412	     -1.47579274	     -4.70445032	      8.49803833	     24.30279832	    -10.88067350	    -13.76544695	    -10.13549012	     -5.70570429	     -8.92926223	      3.83104474	     -9.19114758	      6.25126676	     13.79189157
      1.18733333	     -2.04318449	     -6.65513320	     -9.22639070	      0.06460395	      0.99359293	      0.28351733	    -12.01286269	      4.66900076	     -0.20402138	    -21.17989545	     -2.18283888	     -4.82587804	      8.63979947	     24.05546474	    -10.53596815	    -13.80636343	    -10.42810462	     -5.82140289	     -8.95087740	      3.83432861	     -9.16660353	      5.90630090	     13.67053931
      1.19150000	     -1.86008564	     -6.35687885	     -8.83902779	      0.07087761	      0.99439259	      0.28210345	    -11.79568824	      4.25213587	     -0.91924516	    -22.36618054	     -2.88933292	     -4.75713228	      9.94233296	     23.73806725	     -9.99090417	    -13.52630481	    -10.67489634	     -5.97850635	     -9.22259634	      3.83078512	     -9.24078780	      5.56639500	     13.27577943
      1.19566667	     -1.81825004	     -6.10191496	     -8.75112095	      0.07695071	      0.99513004	      0.28155282	    -11.35785512	      3.91294333	     -1.19124589	    -23.68351958	     -3.63167551	     -4.98633325	     10.01159871	     23.51609781	     -9.69464249	    -13.67091422	    -10.98488984	     -5.94241411	     -9.10124601	      3.83189171	     -9.19854342	      5.20743934	     13.17933061
      1.19983333	     -1.75895763	     -5.82806268	     -8.63528546	      0.08301625	      0.99588661	      0.28090009	    -10.89839062	      3.54397090	     -1.51563936	    -25.06318793	     -4.33110309	     -5.18263589	     10.08461725	     23.25654428	     -9.35480991	    -13.77698186	    -11.23773084	     -5.92294923	     -8.95990822	      3.83275937	     -9.16536806	      4.83660875	     13.06657216
      1.20400000	     -1.73470410	     -5.49070734	     -8.52504972	      0.08910284	      0.99659958	      0.28016207	    -10.34687377	      3.09232412	     -1.87932134	    -26.52897322	     -4.92391973	     -5.26532662	     10.28788377	     23.00106906	     -8.93625329	    -13.86414838	    -11.40875460	     -5.98684784	     -8.88099909	      3.82406081	     -9.07872209	      4.43335064	     12.84865608
